<?xml version="1.0" encoding="UTF-8"?>
<svg id="Layer_1" xmlns="http://www.w3.org/2000/svg" version="1.1" viewBox="0 0 620 115">
  <!-- Generator: Adobe Illustrator 30.3.0, SVG Export Plug-In . SVG Version: 2.1.3 Build 182)  -->
  <defs>
    <style>
      .st0 {
        fill: #252f3f;
      }
    </style>
  </defs>
  <path class="st0" d="M115,2.76l-.48-.48-.96-.96-1.32-1.32-18.25,18.13-1.44-1.44-4.44,4.44,1.44,1.44.48.48L23.05,90.03l-.48-.48-1.44-1.44-4.44,4.44,1.44,1.44L0,112.24l1.32,1.32.96.96.48.48,18.25-18.13,1.44,1.44,4.44-4.44-1.92-1.92L91.95,24.97l1.92,1.92,4.44-4.44-1.44-1.44L115,2.76Z"/>
  <path class="st0" d="M112.24,115l.48-.48.96-.96,1.32-1.32-18.13-18.25,1.44-1.44-4.44-4.44-1.44,1.44-.48.48L24.97,23.05l.48-.48,1.44-1.44-4.44-4.44-1.44,1.44L2.76,0l-1.32,1.32-.96.96-.48.48,18.13,18.25-1.44,1.44,4.44,4.44,1.92-1.92,66.98,66.98-1.92,1.92,4.44,4.44,1.44-1.44,18.25,18.13Z"/>
  <path class="st0" d="M113.25,62.04c0,2.05-.79,3.73-2.37,5.03-1.56,1.3-3.53,1.95-5.91,1.95-1.34,0-2.8-.21-4.35-.64-1.53-.42-2.74-1-3.61-1.73l.04-.11-.04-1.24c0-1.82.15-3.46.46-4.92h2.23l1.13,4.67c1.49.9,3.26,1.35,5.31,1.35l.78-.04c1.32-.66,1.98-1.76,1.98-3.29,0-1.32-.8-2.44-2.41-3.36l-5.59-2.87c-2.53-1.49-3.79-3.39-3.79-5.7,0-1.98.81-3.59,2.44-4.81,1.63-1.25,3.7-1.88,6.23-1.88,1.93,0,4.07.39,6.41,1.17.12,1.98-.03,4.07-.46,6.27h-2.37l-.67-3.68c-1.32-.78-2.88-1.17-4.67-1.17l-1.06.04c-1.11.68-1.66,1.7-1.66,3.04,0,1.25.85,2.32,2.55,3.22l5.31,2.62c2.74,1.53,4.11,3.56,4.11,6.09Z"/>
  <path class="st0" d="M65.25,21.59c0,2.05-.79,3.73-2.37,5.03-1.56,1.3-3.53,1.95-5.91,1.95-1.35,0-2.8-.21-4.35-.64-1.53-.42-2.74-1-3.61-1.73l.04-.11-.04-1.24c0-1.82.15-3.46.46-4.92h2.23l1.13,4.67c1.49.9,3.26,1.35,5.31,1.35l.78-.04c1.32-.66,1.98-1.76,1.98-3.29,0-1.32-.8-2.44-2.41-3.36l-5.59-2.87c-2.53-1.49-3.79-3.39-3.79-5.7,0-1.98.81-3.59,2.44-4.81,1.63-1.25,3.7-1.88,6.23-1.88,1.94,0,4.07.39,6.41,1.17.12,1.98-.04,4.07-.46,6.27h-2.37l-.67-3.68c-1.32-.78-2.88-1.17-4.67-1.17l-1.06.04c-1.11.68-1.66,1.7-1.66,3.04,0,1.25.85,2.32,2.55,3.22l5.31,2.62c2.74,1.53,4.11,3.56,4.11,6.09Z"/>
  <path class="st0" d="M7.26,47.56v8.71l8.04-.6v3.4l-8.04-.32v7.26l4.21.57-.04,1.73H.21l-.21-1.13c.85-.45,1.83-.86,2.94-1.24v-18.76l-2.55-.25.04-1.77h17.31l.04.99c0,1.72-.17,3.5-.5,5.34h-2.44l-.53-3.43-7.04-.5Z"/>
  <path class="st0" d="M48.29,101.64c-.11,1.22-.28,2.27-.53,3.15l-.11-.04v.04h-7.32l-.33-1.29,3.94-4.36c1.06-1.22,1.58-2.23,1.58-3.04,0-.47-.15-.87-.46-1.21-.29-.35-.75-.53-1.37-.53-.38,0-.84.06-1.39.19l-.51,2.53-1.3-.02c-.14-.67-.21-1.43-.21-2.27l.02-.65-.02-.02c1.27-.75,2.53-1.13,3.8-1.13,1.02,0,1.88.31,2.57.93.7.62,1.06,1.39,1.06,2.3,0,.63-.19,1.25-.56,1.85-.36.6-.97,1.36-1.83,2.29l-2.85,2.99.07.14,3.82-.33.84-1.74,1.09.21Z"/>
  <path class="st0" d="M49.17,99.18c0-1.75.42-3.19,1.27-4.33.86-1.15,1.95-1.72,3.27-1.72s2.3.52,3.06,1.57c.76,1.03,1.14,2.42,1.14,4.15,0,1.83-.4,3.31-1.2,4.45-.8,1.14-1.87,1.71-3.2,1.71s-2.34-.54-3.15-1.62c-.8-1.09-1.2-2.49-1.2-4.2ZM52.59,94.55c-.42.41-.74,1.05-.97,1.92-.21.86-.32,1.68-.32,2.48,0,1.33.23,2.45.7,3.36.47.92,1.08,1.37,1.83,1.37.22,0,.44-.04.65-.12.45-.42.77-1.05.97-1.88.21-.84.32-1.71.32-2.59,0-1.29-.21-2.38-.63-3.27-.42-.9-1.04-1.35-1.85-1.35-.25,0-.48.03-.7.09Z"/>
  <path class="st0" d="M65.5,103.91l-.09.88h-6.4l-.11-.6c.62-.27,1.43-.54,2.41-.81v-8.06l-2.13.95-.53-.91,3.73-2.36.99.6v10.01l2.13.3Z"/>
  <path class="st0" d="M71.67,100.27c-.61.21-1.18.32-1.72.32-1.07,0-1.95-.36-2.66-1.09-.69-.73-1.04-1.63-1.04-2.71s.38-2.01,1.13-2.71c.76-.72,1.71-1.07,2.83-1.07,1.29,0,2.32.48,3.1,1.44.77.95,1.16,2.19,1.16,3.71,0,1.98-.66,3.62-1.97,4.91-1.31,1.29-2.94,1.92-4.87,1.88l-.35-2.27,2.99.37c.74-.46,1.28-1.11,1.62-1.97.34-.86.51-1.8.51-2.83,0-1.13-.19-2.07-.58-2.83-.38-.76-.94-1.14-1.71-1.14l-.6.09c-.35.2-.63.52-.83.95-.19.42-.28.88-.28,1.37,0,.73.21,1.33.63,1.81.43.48.99.72,1.67.72.26,0,.52-.04.77-.11l.19,1.16Z"/>
  <path class="st0" d="M159.9,41.59v11.51l10.62-.8v4.49l-10.62-.42v9.59l5.57.75-.05,2.29h-14.83l-.28-1.5c1.12-.59,2.42-1.14,3.88-1.64v-24.79l-3.37-.33.05-2.34h22.87l.05,1.31c0,2.28-.22,4.63-.65,7.06h-3.23l-.7-4.54-9.31-.65ZM192.76,49.45c1.93,2.18,2.9,5.07,2.9,8.65s-1,6.45-2.99,8.61c-1.96,2.15-4.51,3.23-7.62,3.23-1.62,0-3.16-.33-4.63-.98l-2.29,3.65-2.95-1.96,2.34-3.69c-2.37-2.25-3.55-5.27-3.55-9.07,0-3.49,1.03-6.35,3.09-8.56,2.09-2.21,4.71-3.32,7.86-3.32,1.87,0,3.59.42,5.15,1.26l1.82-2.9,2.99,1.82-2.11,3.27ZM179.66,57.54c0,1.84.25,3.46.75,4.86l7.39-11.65c-.9-.9-1.98-1.36-3.23-1.36s-2.18.3-2.99.89c-1.28,1.59-1.92,4.01-1.92,7.25ZM187.43,66.19c1.72-1.15,2.57-3.68,2.57-7.58,0-1.5-.14-2.87-.42-4.12l-7.02,11.08c.81.62,1.78.94,2.9.94.62,0,1.28-.11,1.96-.33ZM217.4,47.44c.06,2.68-.36,5.43-1.26,8.23h-3.04l-.75-5.24c-2.12,1.4-3.96,3.09-5.52,5.05v10.01c2.34.31,3.96.73,4.87,1.26l-.19,2.25h-13.42l-.19-1.59c1-.5,2.15-.95,3.46-1.36v-16.09l-3.51-.05-.47-2.25c2.15-.87,4.6-1.39,7.34-1.54l2.1,1.87v3.98l4.77-5.19c.75-.31,1.54-.47,2.38-.47,1.34,0,2.48.37,3.41,1.12ZM218.12,57.87c0-3.49,1.03-6.35,3.09-8.56,2.09-2.21,4.71-3.32,7.86-3.32s5.72,1.12,7.72,3.37c2.03,2.21,3.04,5.13,3.04,8.75s-1,6.45-2.99,8.61c-1.96,2.15-4.5,3.23-7.62,3.23s-5.86-1.12-7.95-3.37c-2.09-2.28-3.13-5.18-3.13-8.7ZM231.59,66.19c1.71-1.15,2.57-3.68,2.57-7.58,0-2.68-.45-4.88-1.36-6.59-.87-1.75-2.23-2.62-4.07-2.62-1.19,0-2.18.3-2.99.89-1.28,1.59-1.92,4.01-1.92,7.25,0,2.56.48,4.69,1.45,6.41.97,1.71,2.42,2.57,4.35,2.57.62,0,1.28-.11,1.96-.33ZM264.77,48.84l-2.76,1.12c-1.99,6.73-3.74,12.07-5.24,16-1.18,2.87-2.7,5.38-4.54,7.53-1.81,2.18-4.15,4.1-7.01,5.75l-2.95-5.14c3.93-1.4,6.95-3.1,9.07-5.1-1.15-.37-2.15-.87-2.99-1.5l-6.31-17.4-2.85-.8.05-2.39h11.09l.23,1.92-2.57,1.08,3.13,9.82.65,4.72h.84c1.46-4.18,2.76-9.04,3.88-14.59l-2.62-.56.05-2.39h10.62l.23,1.92ZM287.45,67.13l-5.19,2.62c-.59-.06-1.28-.41-2.06-1.03-.78-.65-1.37-1.42-1.78-2.29l-5.14,3.23-1.26.09c-1.9,0-3.48-.56-4.72-1.68-1.22-1.12-1.82-2.48-1.82-4.07,0-2.25,1.15-3.98,3.46-5.19l9.03-.23v-4.49c0-2.49-.75-4.13-2.24-4.91-1.65.06-3.12.31-4.4.75l-.61,4.96-3.18.14c-.84-1.75-1.23-3.77-1.17-6.08,1.53-.78,3.46-1.5,5.8-2.15,2.37-.65,4.1-.98,5.19-.98s2.1.34,3.13,1.03c1.06.65,1.87,1.42,2.43,2.29.34.62.53,1.81.56,3.55v11.74c0,.65.39.98,1.17.98l2.24-.33.56,2.06ZM272.16,65.91c1.5,0,3.43-.47,5.8-1.4v-3.37l-1.64-.05c-3.49,0-5.24.9-5.24,2.71,0,.9.36,1.61,1.08,2.1ZM324.45,60.72c0,2.71-1.04,4.93-3.13,6.64-2.06,1.72-4.66,2.57-7.81,2.57-1.78,0-3.7-.28-5.75-.84-2.03-.56-3.62-1.33-4.77-2.29l.05-.14-.05-1.64c0-2.4.2-4.57.61-6.5h2.95l1.5,6.17c1.96,1.18,4.3,1.78,7.01,1.78l1.03-.05c1.75-.87,2.62-2.32,2.62-4.35,0-1.75-1.06-3.23-3.18-4.44l-7.39-3.79c-3.34-1.96-5-4.47-5-7.53,0-2.62,1.08-4.74,3.23-6.36,2.15-1.65,4.9-2.48,8.23-2.48,2.56,0,5.38.51,8.47,1.54.16,2.62-.05,5.38-.61,8.28h-3.13l-.89-4.86c-1.75-1.03-3.8-1.54-6.17-1.54l-1.4.05c-1.47.9-2.2,2.24-2.2,4.02,0,1.65,1.12,3.07,3.37,4.26l7.02,3.46c3.62,2.03,5.42,4.71,5.42,8.04ZM336.57,65.16c.84,0,2.21-.3,4.11-.89l.61,2.25-6.59,3.23c-1.25.06-2.43-.37-3.55-1.31-1.12-.94-1.68-1.96-1.68-3.09v-14.26l-3.04.05-.28-2.34c1.28-.72,2.46-1.26,3.55-1.64l2.06-5.99h2.71l.37,5.85h6.55l.14,1.68-2.24,2.48h-4.35v11.6c0,.87.11,1.5.33,1.87.25.34.69.51,1.31.51ZM367.31,48.84l-2.76,1.12c-1.99,6.73-3.74,12.07-5.24,16-1.18,2.87-2.7,5.38-4.54,7.53-1.81,2.18-4.15,4.1-7.01,5.75l-2.95-5.14c3.93-1.4,6.95-3.1,9.07-5.1-1.15-.37-2.15-.87-2.99-1.5l-6.31-17.4-2.85-.8.05-2.39h11.08l.23,1.92-2.57,1.08,3.13,9.82.65,4.72h.84c1.46-4.18,2.76-9.04,3.88-14.59l-2.62-.56.05-2.39h10.62l.23,1.92ZM387.49,47.44c.06,2.68-.36,5.43-1.26,8.23h-3.04l-.75-5.24c-2.12,1.4-3.96,3.09-5.52,5.05v10.01c2.34.31,3.96.73,4.86,1.26l-.19,2.25h-13.42l-.19-1.59c1-.5,2.15-.95,3.46-1.36v-16.09l-3.51-.05-.47-2.25c2.15-.87,4.6-1.39,7.34-1.54l2.1,1.87v3.98l4.77-5.19c.75-.31,1.54-.47,2.39-.47,1.34,0,2.48.37,3.41,1.12ZM414.11,67.83l-5.99,1.73c-.87-.25-1.7-.94-2.48-2.06l-4.86-7.62-2.85.37v5.52c1.03.25,1.87.58,2.53.98l-.19,2.25h-11.13l-.19-1.59c.97-.47,2.14-.92,3.51-1.36v-27.59l-3.51-.09-.47-2.24c2.15-.87,4.6-1.39,7.34-1.54l2.1,1.87v21.37l2.62-1.54,5.43-6.55-3.55.19-.47-2.25c2.37-.87,5.22-1.39,8.56-1.54v.05l1.64,2.57-7.2,8.51,5.05,7.3c.59.78,1.33,1.17,2.2,1.17l1.36-.14.56,2.24ZM421.99,42.53c-1.71-.72-3.13-1.81-4.26-3.27.93-1.87,2.09-3.29,3.46-4.26,1.59.72,2.95,1.87,4.07,3.46-.72,1.75-1.81,3.1-3.27,4.07ZM424.47,65.63c1.43.25,2.54.62,3.32,1.12l-.19,2.25h-11.97l-.19-1.59c.9-.47,2.09-.92,3.55-1.36v-16.09l-3.51-.05-.47-2.25c2.15-.87,4.6-1.39,7.34-1.54l2.11,1.87v17.63ZM435.44,51.51c0,.94.39,1.7,1.17,2.29.78.56,1.98,1.2,3.6,1.92l3.13,1.59c2.46,1.4,3.7,3.31,3.7,5.71,0,2.03-.79,3.69-2.38,5-1.59,1.28-3.65,1.92-6.17,1.92-2.87,0-5.8-.83-8.79-2.48l2.06-4.77c2.81,2.03,5.8,3.35,8.98,3.98.75-.65,1.12-1.45,1.12-2.39,0-.87-.33-1.61-.98-2.2-.62-.62-2.1-1.47-4.44-2.53-2.34-1.06-3.93-2.09-4.77-3.09-.84-1.03-1.26-2.21-1.26-3.55,0-2.12.9-3.8,2.71-5.05,1.81-1.25,4.02-1.87,6.64-1.87,2.4,0,4.54.48,6.41,1.45h.05l.05,1.12c0,1.75-.28,3.45-.84,5.1h-3.04l-.7-3.93c-1.65-.53-3.2-.75-4.63-.65-1.06.56-1.59,1.37-1.59,2.43ZM472.34,67.13l-5.19,2.62c-.59-.06-1.28-.41-2.06-1.03-.78-.65-1.37-1.42-1.78-2.29l-5.14,3.23-1.26.09c-1.9,0-3.48-.56-4.72-1.68-1.22-1.12-1.82-2.48-1.82-4.07,0-2.25,1.15-3.98,3.46-5.19l9.03-.23v-4.49c0-2.49-.75-4.13-2.24-4.91-1.65.06-3.12.31-4.4.75l-.61,4.96-3.18.14c-.84-1.75-1.23-3.77-1.17-6.08,1.53-.78,3.46-1.5,5.8-2.15,2.37-.65,4.1-.98,5.19-.98s2.1.34,3.13,1.03c1.06.65,1.87,1.42,2.43,2.29.34.62.53,1.81.56,3.55v11.74c0,.65.39.98,1.17.98l2.24-.33.56,2.06ZM457.05,65.91c1.5,0,3.43-.47,5.8-1.4v-3.37l-1.64-.05c-3.49,0-5.24.9-5.24,2.71,0,.9.36,1.61,1.07,2.1ZM509.94,65.63c1.43.31,2.54.69,3.32,1.12l-.23,2.25h-10.99l-.19-1.59,2.62-1.08v-10.99c0-3.21-.98-4.82-2.95-4.82-1.37,0-3.24.76-5.61,2.29l.05,12.86c1.25.25,2.29.61,3.13,1.08l-.23,2.25h-10.8l-.19-1.59,2.62-1.08v-10.99c0-3.21-.98-4.82-2.95-4.82-1.34,0-3.16.73-5.47,2.2v12.96c1.28.34,2.24.7,2.9,1.08l-.19,2.25h-11.37l-.19-1.59c.75-.41,1.87-.84,3.37-1.31v-16.14l-3.51-.05-.47-2.25c2.15-.87,4.6-1.39,7.34-1.54l2.11,1.96v2.39c3.71-2.62,6.47-4.05,8.28-4.3.93.12,1.87.48,2.81,1.08.97.59,1.7,1.31,2.2,2.15.19.34.33.76.42,1.26,3.65-2.65,6.5-4.15,8.56-4.49.94.12,1.87.48,2.81,1.08.97.59,1.7,1.31,2.2,2.15.37.69.58,2.1.61,4.26v11.97ZM527.68,46.36l1.78-.19c2.49,0,4.55,1.04,6.17,3.13,1.62,2.09,2.43,4.69,2.43,7.81,0,3.71-1.18,6.77-3.55,9.17-2.34,2.4-5.35,3.6-9.03,3.6-2.62,0-5.49-.65-8.61-1.96l.05-.05v-29.42l-3.51-.09-.42-2.24c2.15-.87,4.6-1.39,7.34-1.54l2.06,1.92v13.42l5.29-3.55ZM528.76,66.24c1.12-.75,1.99-1.86,2.62-3.32.65-1.5.98-3.07.98-4.72,0-2.06-.5-3.84-1.5-5.33-1-1.5-2.29-2.24-3.88-2.24-1.22,0-2.74.55-4.58,1.64v12.91c1.4.81,2.96,1.22,4.68,1.22l1.68-.14ZM562.23,67.13l-5.19,2.62c-.59-.06-1.28-.41-2.06-1.03-.78-.65-1.37-1.42-1.78-2.29l-5.15,3.23-1.26.09c-1.9,0-3.48-.56-4.72-1.68-1.22-1.12-1.82-2.48-1.82-4.07,0-2.25,1.15-3.98,3.46-5.19l9.03-.23v-4.49c0-2.49-.75-4.13-2.24-4.91-1.65.06-3.12.31-4.4.75l-.61,4.96-3.18.14c-.84-1.75-1.23-3.77-1.17-6.08,1.53-.78,3.46-1.5,5.8-2.15,2.37-.65,4.1-.98,5.19-.98s2.1.34,3.13,1.03c1.06.65,1.87,1.42,2.43,2.29.34.62.53,1.81.56,3.55v11.74c0,.65.39.98,1.17.98l2.24-.33.56,2.06ZM546.93,65.91c1.5,0,3.43-.47,5.8-1.4v-3.37l-1.64-.05c-3.49,0-5.24.9-5.24,2.71,0,.9.36,1.61,1.08,2.1ZM586.26,65.63c1.43.31,2.54.69,3.32,1.12l-.23,2.25h-10.99l-.19-1.59,2.62-1.08v-10.99c0-3.21-.98-4.82-2.95-4.82-1.34,0-3.31.83-5.89,2.48v12.67c1.28.34,2.24.7,2.9,1.08l-.19,2.25h-11.37l-.19-1.59c.75-.41,1.87-.84,3.37-1.31v-16.14l-3.51-.05-.47-2.25c2.15-.87,4.6-1.39,7.34-1.54l2.11,1.96v2.67c3.8-2.71,6.7-4.24,8.7-4.58.94.12,1.87.48,2.81,1.08.97.59,1.7,1.31,2.2,2.15.37.69.58,2.1.61,4.26v11.97ZM615.39,67.13l-5.19,2.62c-.65-.06-1.39-.45-2.2-1.17-.78-.72-1.36-1.54-1.73-2.48l-5.19,3.65c-3.06.03-5.6-1.06-7.62-3.27-2-2.25-2.99-5.04-2.99-8.37s1.14-6.35,3.42-8.65c2.31-2.31,5.17-3.46,8.6-3.46,1.22,0,2.37.17,3.46.51v-8.04l-3.51-.09-.47-2.24c2.15-.87,4.6-1.39,7.34-1.54l2.1,1.92v27.92c0,.65.41.98,1.22.98l2.2-.33.56,2.06ZM596.21,57.45c0,2.21.51,4.07,1.54,5.57,1.06,1.47,2.46,2.2,4.21,2.2,1.18,0,2.51-.39,3.97-1.17v-13c-1.56-1.06-3.27-1.59-5.14-1.59l-1.5.14c-2.06,1.81-3.09,4.43-3.09,7.86Z"/>
</svg>